<?xml version="1.0"?>
<svg xmlns="http://www.w3.org/2000/svg" xmlns:xlink="http://www.w3.org/1999/xlink" version="1.1" id="Layer_1" x="0px" y="0px" viewBox="0 0 512 512" style="enable-background:new 0 0 512 512;" xml:space="preserve" width="512px" height="512px" class="hovered-paths"><g><path style="fill:#FFFFFF" d="M240.012,512c-59.959,0-119.919-22.822-165.564-68.468c-91.293-91.293-91.293-239.837,0-331.131  c29.058-29.058,65.367-50.007,105.002-60.583c5.426-1.445,11.207,0.107,15.174,4.075c3.968,3.969,5.522,9.752,4.075,15.174  c-17.268,64.708-1.681,133.561,41.694,184.18c5.651,6.596,4.886,16.524-1.709,22.176c-6.596,5.649-16.524,4.885-22.176-1.709  c-43.976-51.32-63.239-118.833-53.833-185.09c-24.58,10.142-47.058,25.093-65.985,44.02c-79.028,79.028-79.028,207.62,0,286.648  c79.028,79.027,207.618,79.028,286.648,0c18.93-18.931,33.883-41.412,44.025-66.001c-30.448,4.3-61.616,2.614-91.499-5.069  c-16.168-4.156-31.907-10.062-46.78-17.554c-7.758-3.906-10.878-13.363-6.971-21.119c3.906-7.758,13.361-10.881,21.119-6.971  c12.863,6.478,26.477,11.586,40.462,15.182c33.794,8.689,69.487,8.521,103.217-0.48c5.424-1.448,11.207,0.105,15.174,4.073  c3.969,3.969,5.522,9.752,4.075,15.174c-10.578,39.635-31.527,75.944-60.583,105.002C359.931,489.178,299.97,512,240.012,512z" data-original="#2D527C" class="" data-old_color="#2D527C"/><polygon style="fill:#CEE8FA" points="378.522,192.013 309.443,228.33 322.637,151.409 266.75,96.934 343.982,85.711   378.522,15.726 413.062,85.711 490.295,96.934 434.409,151.409 447.602,228.33 " data-original="#CEE8FA" class="hovered-path active-path" data-old_color="#CEE8FA"/><path style="fill:#FFFFFF" d="M447.601,244.057c-2.504,0-5.015-0.596-7.316-1.805l-61.761-32.469l-61.761,32.469  c-5.298,2.785-11.719,2.321-16.561-1.197c-4.844-3.52-7.269-9.481-6.256-15.382l11.795-68.772l-49.966-48.705  c-4.287-4.179-5.83-10.428-3.98-16.121c1.849-5.693,6.772-9.842,12.696-10.703l69.052-10.033l30.88-62.571  C367.069,3.398,372.537,0,378.522,0c5.985,0,11.454,3.398,14.102,8.766l30.88,62.571l69.052,10.033  c5.924,0.86,10.845,5.01,12.696,10.703c1.851,5.693,0.307,11.943-3.98,16.121l-49.966,48.705l11.62,67.749  c0.283,1.179,0.432,2.412,0.432,3.68c0,8.681-7.034,15.719-15.712,15.726C447.632,244.057,447.616,244.057,447.601,244.057z   M378.522,176.287c2.513,0,5.028,0.602,7.318,1.805l40.875,21.49l-7.807-45.514c-0.876-5.102,0.816-10.307,4.523-13.919  l33.068-32.234l-45.699-6.641c-5.122-0.744-9.551-3.961-11.84-8.602L378.521,51.26l-20.438,41.411  c-2.291,4.641-6.718,7.858-11.84,8.602l-45.699,6.641l33.068,32.234c3.707,3.612,5.399,8.818,4.523,13.919l-7.807,45.514  l40.875-21.49C373.495,176.889,376.009,176.287,378.522,176.287z" data-original="#2D527C" class="" data-old_color="#2D527C"/></g> </svg>
