<?xml version="1.0"?>
<svg xmlns="http://www.w3.org/2000/svg" xmlns:xlink="http://www.w3.org/1999/xlink" version="1.1" id="Layer_1" x="0px" y="0px" viewBox="0 0 512.003 512.003" style="enable-background:new 0 0 512.003 512.003;" xml:space="preserve" width="512px" height="512px" class=""><g><path style="fill:#CEE8FA;" d="M224.344,346.294c-34.191-34.191-44.577-83.166-31.175-126.346  c-18.862,5.854-36.62,16.239-51.555,31.175c-49.126,49.126-49.126,128.775,0,177.9c49.126,49.126,128.775,49.126,177.9,0  c14.935-14.936,25.32-32.693,31.175-51.555C307.51,390.87,258.537,380.485,224.344,346.294z" data-original="#CEE8FA" class=""/><g>
	<path style="fill:#FFFFFF" d="M461.302,215.297c4.738-14.176,7.13-28.959,7.13-44.127c0-77.058-62.691-139.747-139.747-139.747   c-46.906,0-90.34,23.474-116.151,62.023c-3.506-1.061-7.054-1.945-10.633-2.693c-0.325-0.068-0.65-0.134-0.975-0.199   c-1.792-0.359-3.592-0.686-5.4-0.967c-0.14-0.022-0.28-0.049-0.421-0.069c-1.964-0.299-3.939-0.549-5.921-0.755   c-0.335-0.035-0.672-0.06-1.008-0.093c-1.607-0.153-3.219-0.277-4.836-0.369c-0.505-0.029-1.008-0.059-1.513-0.082   c-1.944-0.088-3.893-0.149-5.85-0.149c-69.735,0-126.467,56.733-126.467,126.468c0,0.443,0.003,0.887,0.007,1.333   C19.5,230.973,0,261.985,0,296.185c0,49.563,40.322,89.884,89.885,89.884h7.85c6.858,19.86,18.183,38.063,33.477,53.358   c26.538,26.538,61.824,41.153,99.353,41.153c37.532,0,72.816-14.616,99.355-41.155c16.076-16.076,28.117-35.993,34.822-57.597   c1.62-5.217,0.215-10.903-3.647-14.765c-3.864-3.862-9.553-5.267-14.765-3.647c-10.694,3.319-21.811,5.001-33.046,5.001   c-29.666,0-57.558-11.553-78.534-32.528c-29.26-29.259-39.808-72.014-27.527-111.58c1.62-5.217,0.215-10.903-3.647-14.765   c-3.864-3.864-9.547-5.27-14.765-3.649c-21.607,6.705-41.522,18.748-57.597,34.822c-26.538,26.538-41.153,61.824-41.153,99.355   c0,5.581,0.331,11.11,0.968,16.57h-1.142c-33.337,0.001-60.46-27.121-60.46-60.457c0-25.545,16.173-48.445,40.245-56.985   c6.361-2.257,10.37-8.551,9.726-15.269c-0.306-3.197-0.461-6.358-0.461-9.393c0-53.509,43.532-97.042,97.04-97.042   c1.654,0,3.296,0.043,4.929,0.125c0.321,0.016,0.637,0.052,0.956,0.071c1.323,0.079,2.643,0.169,3.951,0.302   c0.272,0.028,0.541,0.071,0.814,0.1c1.355,0.149,2.707,0.312,4.045,0.516c0.199,0.031,0.396,0.072,0.594,0.103   c1.405,0.224,2.804,0.466,4.189,0.75c0.156,0.032,0.31,0.072,0.466,0.104c1.42,0.297,2.831,0.619,4.229,0.978   c0.141,0.037,0.28,0.079,0.421,0.118c1.407,0.368,2.803,0.761,4.183,1.19c0.131,0.041,0.259,0.088,0.39,0.129   c1.393,0.44,2.776,0.903,4.142,1.405c0.065,0.024,0.127,0.05,0.191,0.074c37.053,13.67,63.544,49.337,63.544,91.077   c0,8.126,6.589,14.713,14.713,14.713s14.713-6.587,14.713-14.713c0-46.382-25.114-86.987-62.442-108.998   c20.65-27.883,53.424-44.692,88.682-44.692c60.832,0,110.32,49.49,110.32,110.32c0,16.155-3.439,31.756-10.218,46.368   c-1.82,3.924-1.822,8.45-0.004,12.375c1.817,3.926,5.27,6.852,9.44,8.001c26.113,7.199,44.352,31.161,44.352,58.271   c0,33.336-27.123,60.457-60.459,60.457c-8.125,0-14.713,6.587-14.713,14.713s6.589,14.713,14.713,14.713   c49.563,0,89.885-40.322,89.885-89.884C512,261.401,491.799,230.1,461.302,215.297z M152.019,261.526   c6.503-6.503,13.62-12.081,21.299-16.704c-3.703,41.009,10.751,82.002,40.622,111.876c26.534,26.534,61.815,41.146,99.343,41.146   c4.199,0,8.388-0.187,12.552-0.558c-4.626,7.692-10.21,14.819-16.723,21.333c-20.981,20.981-48.875,32.536-78.547,32.536   c-29.669,0-57.566-11.554-78.546-32.534c-20.981-20.981-32.534-48.876-32.534-78.547   C119.485,310.402,131.04,282.508,152.019,261.526z" data-original="#2D527C" class="active-path" data-old_color="#2D527C"/>
	<path style="fill:#FFFFFF" d="M339.866,272.185h-10.299v-10.299c0-8.126-6.589-14.713-14.713-14.713s-14.713,6.587-14.713,14.713   v10.299h-10.299c-8.125,0-14.713,6.587-14.713,14.713s6.589,14.713,14.713,14.713h10.299v10.299   c0,8.126,6.589,14.713,14.713,14.713s14.713-6.587,14.713-14.713v-10.299h10.299c8.125,0,14.713-6.587,14.713-14.713   S347.992,272.185,339.866,272.185z" data-original="#2D527C" class="active-path" data-old_color="#2D527C"/>
</g></g> </svg>
