<?xml version="1.0"?>
<svg xmlns="http://www.w3.org/2000/svg" xmlns:xlink="http://www.w3.org/1999/xlink" version="1.1" id="Layer_1" x="0px" y="0px" viewBox="0 0 511.996 511.996" style="enable-background:new 0 0 511.996 511.996;" xml:space="preserve" width="512px" height="512px" class=""><g><path style="fill:#FFFFFF" d="M324.58,456.864H155.951c-42.847,0-77.707-34.859-77.707-77.707c0-8.135,6.595-14.73,14.73-14.73  s14.73,6.595,14.73,14.73c0,26.605,21.644,48.247,48.247,48.247H324.58c8.135,0,14.73,6.594,14.73,14.73  S332.715,456.864,324.58,456.864z" data-original="#2D527C" class="active-path" data-old_color="#2D527C"/><path style="fill:#CEE8FA" d="M134.455,310.813c0-0.021-0.001-0.04-0.001-0.06c0-51.709,41.918-93.627,93.627-93.627  c12.737,0,24.876,2.554,35.944,7.16c15.266-27.953,42.9-48.169,75.544-53.32c0.255-2.793,0.417-5.612,0.417-8.47  c0-51.162-41.475-92.637-92.637-92.637c-35.099,0-65.637,19.524-81.354,48.302c-9.788-4.074-20.523-6.332-31.787-6.332  c-45.728,0-82.797,37.07-82.797,82.797c0,2.7,0.14,5.366,0.392,8C30.203,210.29,14.73,230.892,14.73,255.12  c0,30.759,24.935,55.693,55.693,55.693h40.463H134.455z" data-original="#CEE8FA" class="" data-old_color="#CEE8FA"/><path style="fill:#FFFFFF" d="M470.045,310.168c3.624-11.514,5.454-23.484,5.454-35.748c0-65.883-53.6-119.483-119.483-119.483  c-0.533,0-1.063,0.018-1.595,0.025c-3.884-55.696-50.407-99.831-107.072-99.831c-35.092,0-67.654,17.098-87.648,45.341  c-8.269-2.24-16.802-3.372-25.493-3.372c-53.333,0-96.805,43.031-97.518,96.2C14.369,205.495,0,229.132,0,255.12  c0,38.832,31.592,70.423,70.423,70.423h50.906c2.438,5.768,8.399,9.552,14.973,8.917c8.098-0.776,14.033-7.97,13.257-16.069  c-0.247-2.581-0.373-5.127-0.374-7.571c0-0.003,0-0.006,0-0.009c0-0.034,0-0.071-0.001-0.106c0-0.729,0.035-1.449,0.055-2.174  c0.018-0.638,0.019-1.28,0.053-1.915c0.037-0.7,0.105-1.39,0.159-2.086c0.05-0.638,0.084-1.28,0.15-1.913  c0.069-0.679,0.171-1.349,0.258-2.024c0.082-0.639,0.15-1.284,0.249-1.918c0.102-0.657,0.233-1.304,0.351-1.956  c0.115-0.641,0.217-1.286,0.348-1.922c0.131-0.639,0.293-1.267,0.439-1.9c0.149-0.638,0.283-1.28,0.446-1.912  c0.162-0.628,0.354-1.243,0.53-1.863c0.178-0.625,0.343-1.255,0.536-1.872c0.19-0.61,0.408-1.206,0.613-1.809  c0.211-0.619,0.407-1.242,0.632-1.853c0.214-0.579,0.452-1.146,0.679-1.719c0.245-0.62,0.477-1.246,0.738-1.859  c0.239-0.563,0.504-1.111,0.754-1.666c0.275-0.608,0.539-1.224,0.829-1.824c0.267-0.551,0.557-1.086,0.835-1.629  c0.302-0.589,0.594-1.187,0.91-1.768c0.287-0.527,0.6-1.04,0.897-1.56c0.334-0.582,0.658-1.171,1.006-1.743  c0.303-0.498,0.63-0.981,0.944-1.471c0.368-0.576,0.728-1.159,1.111-1.726c0.326-0.48,0.673-0.944,1.009-1.417  c0.396-0.558,0.784-1.125,1.193-1.673c0.343-0.458,0.707-0.897,1.059-1.346c0.427-0.545,0.845-1.099,1.286-1.632  c0.368-0.445,0.757-0.872,1.134-1.309c0.448-0.517,0.885-1.043,1.345-1.55c0.396-0.436,0.813-0.851,1.218-1.277  c0.464-0.488,0.919-0.985,1.396-1.461c0.407-0.407,0.834-0.794,1.249-1.192c0.496-0.474,0.984-0.959,1.492-1.42  c0.414-0.376,0.847-0.732,1.27-1.1c0.53-0.461,1.052-0.932,1.594-1.379c0.442-0.365,0.903-0.709,1.352-1.063  c0.541-0.427,1.074-0.863,1.625-1.276c0.489-0.365,0.994-0.707,1.492-1.062c0.533-0.38,1.058-0.77,1.601-1.137  c0.492-0.331,1-0.641,1.499-0.962c0.567-0.365,1.127-0.739,1.703-1.09c0.495-0.3,1.005-0.577,1.507-0.868  c0.598-0.345,1.187-0.701,1.794-1.031c0.538-0.292,1.091-0.56,1.636-0.84c0.586-0.302,1.167-0.616,1.762-0.903  c0.552-0.267,1.119-0.507,1.679-0.762c0.604-0.274,1.202-0.561,1.813-0.82c0.567-0.24,1.149-0.454,1.722-0.681  c0.619-0.245,1.23-0.502,1.854-0.732c0.627-0.23,1.27-0.432,1.905-0.647c0.586-0.197,1.164-0.409,1.756-0.595  c0.651-0.203,1.315-0.376,1.972-0.561c0.589-0.166,1.173-0.349,1.768-0.502c0.682-0.175,1.376-0.32,2.064-0.477  c0.583-0.134,1.159-0.283,1.747-0.404c0.681-0.14,1.373-0.247,2.061-0.368c0.607-0.108,1.208-0.231,1.821-0.326  c0.717-0.109,1.445-0.186,2.168-0.277c0.591-0.074,1.177-0.165,1.772-0.225c0.869-0.088,1.747-0.14,2.625-0.2  c0.46-0.031,0.913-0.081,1.374-0.105c1.342-0.068,2.693-0.103,4.051-0.103c1.343,0,2.679,0.035,4.008,0.102  c0.258,0.013,0.513,0.041,0.769,0.056c1.08,0.065,2.158,0.138,3.226,0.246c0.202,0.021,0.401,0.052,0.601,0.074  c1.124,0.122,2.243,0.258,3.351,0.427c0.137,0.021,0.271,0.049,0.408,0.071c1.17,0.184,2.333,0.387,3.485,0.625  c0.091,0.018,0.18,0.043,0.271,0.06c1.193,0.249,2.377,0.52,3.55,0.822c0.068,0.018,0.136,0.038,0.205,0.057  c1.193,0.311,2.376,0.645,3.547,1.01c0.041,0.013,0.082,0.028,0.124,0.041c32.04,10.038,55.354,40,55.354,75.307  c0,8.135,6.595,14.73,14.73,14.73c8.135,0,14.73-6.595,14.73-14.73c0-38.761-20.471-72.815-51.156-91.97  c12.791-16.178,30.935-27.698,51.108-32.211c0.227-0.05,0.452-0.103,0.679-0.152c1.513-0.326,3.036-0.614,4.568-0.86  c4.712-0.762,9.517-1.164,14.382-1.164c49.639,0,90.024,40.385,90.024,90.024c0,13.185-2.805,25.914-8.337,37.835  c-1.824,3.928-1.825,8.459-0.006,12.389c1.819,3.93,5.278,6.86,9.452,8.01c20.838,5.746,35.393,24.868,35.393,46.502  c0,26.605-21.644,48.247-48.247,48.247h-28.792c-8.135,0-14.73,6.595-14.73,14.73c0,8.135,6.594,14.73,14.73,14.73h28.792  c42.847,0,77.707-34.859,77.707-77.707C512,349.804,495.36,323.32,470.045,310.168z M29.459,255.12  c0-17.309,10.957-32.825,27.268-38.611c6.369-2.26,10.383-8.562,9.738-15.288c-0.215-2.246-0.324-4.465-0.324-6.593  c0-37.533,30.535-68.068,68.068-68.068c9.044,0,17.833,1.75,26.126,5.201c6.958,2.896,14.976,0.074,18.587-6.539  c13.687-25.063,39.907-40.632,68.426-40.632c41.784,0,75.989,33.062,77.829,74.4c-0.053,0.015-0.103,0.031-0.156,0.046  c-27.15,7.291-51.099,24.001-67.318,47.468c-0.767-0.218-1.541-0.414-2.313-0.614c-0.137-0.035-0.271-0.074-0.408-0.108  c-0.15-0.038-0.299-0.082-0.451-0.119c-0.144-0.037-0.286-0.078-0.43-0.115c-0.928-0.23-1.862-0.436-2.796-0.639  c-0.284-0.062-0.566-0.134-0.848-0.194c-0.183-0.038-0.367-0.069-0.549-0.106c-0.025-0.004-0.05-0.009-0.075-0.015  c-0.675-0.138-1.352-0.265-2.031-0.39c-0.339-0.062-0.676-0.136-1.015-0.194c-0.599-0.105-1.202-0.189-1.803-0.283  c-0.252-0.04-0.504-0.081-0.757-0.118c-0.38-0.057-0.757-0.125-1.137-0.178c-0.76-0.106-1.526-0.187-2.289-0.277  c-0.477-0.056-0.952-0.124-1.43-0.172c-0.075-0.007-0.152-0.012-0.227-0.019c-0.003,0-0.004,0-0.007,0  c-0.672-0.068-1.346-0.118-2.019-0.174c-0.496-0.041-0.991-0.094-1.491-0.128c-0.458-0.031-0.918-0.046-1.377-0.071  c-0.393-0.022-0.787-0.043-1.181-0.06c-0.14-0.006-0.278-0.016-0.418-0.022c-0.264-0.01-0.524-0.031-0.788-0.04  c-1.258-0.043-2.52-0.065-3.784-0.065c-1.794,0-3.576,0.049-5.348,0.135c-0.589,0.029-1.17,0.085-1.757,0.122  c-1.178,0.077-2.357,0.155-3.526,0.27c-0.692,0.068-1.377,0.161-2.065,0.242c-1.055,0.124-2.108,0.247-3.152,0.402  c-0.723,0.106-1.439,0.233-2.158,0.354c-0.997,0.168-1.993,0.339-2.981,0.535c-0.734,0.144-1.46,0.303-2.187,0.463  c-0.96,0.211-1.919,0.429-2.871,0.664c-0.729,0.181-1.454,0.371-2.177,0.567c-0.94,0.253-1.874,0.52-2.802,0.797  c-0.714,0.214-1.426,0.432-2.133,0.66c-0.928,0.299-1.847,0.614-2.765,0.937c-0.689,0.243-1.38,0.486-2.064,0.742  c-0.925,0.348-1.84,0.716-2.753,1.087c-0.657,0.268-1.315,0.529-1.966,0.81c-0.941,0.405-1.868,0.835-2.794,1.265  c-0.602,0.28-1.211,0.551-1.807,0.841c-1.01,0.492-2.005,1.015-2.998,1.538c-0.493,0.261-0.996,0.505-1.485,0.773  c-1.463,0.798-2.906,1.628-4.328,2.491c-0.009,0.006-0.019,0.01-0.028,0.016c-1.43,0.871-2.837,1.776-4.224,2.71  c-0.457,0.308-0.897,0.633-1.349,0.949c-0.921,0.641-1.84,1.281-2.74,1.95c-0.527,0.392-1.04,0.801-1.561,1.202  c-0.803,0.619-1.604,1.237-2.388,1.878c-0.542,0.442-1.069,0.899-1.603,1.351c-0.741,0.629-1.477,1.259-2.201,1.908  c-0.535,0.479-1.059,0.968-1.585,1.458c-0.697,0.65-1.389,1.305-2.068,1.972c-0.518,0.508-1.028,1.024-1.536,1.542  c-0.663,0.678-1.317,1.364-1.963,2.059c-0.493,0.532-0.984,1.066-1.467,1.608c-0.635,0.71-1.256,1.433-1.872,2.159  c-0.464,0.548-0.928,1.096-1.382,1.654c-0.613,0.754-1.209,1.522-1.801,2.292c-0.426,0.554-0.857,1.105-1.273,1.666  c-0.602,0.815-1.181,1.644-1.762,2.476c-0.377,0.541-0.763,1.074-1.13,1.622c-0.625,0.929-1.22,1.88-1.816,2.83  c-0.293,0.468-0.6,0.926-0.887,1.399c-0.851,1.407-1.675,2.831-2.463,4.279c-0.015,0.028-0.031,0.053-0.047,0.081  c-0.803,1.476-1.567,2.974-2.302,4.49c-0.237,0.488-0.452,0.988-0.681,1.48c-0.483,1.035-0.963,2.071-1.414,3.124  c-0.259,0.605-0.496,1.221-0.745,1.832c-0.39,0.959-0.778,1.916-1.14,2.888c-0.246,0.66-0.474,1.329-0.709,1.994  c-0.33,0.941-0.657,1.882-0.962,2.835c-0.222,0.694-0.43,1.395-0.639,2.096c-0.28,0.941-0.552,1.884-0.807,2.835  c-0.193,0.719-0.376,1.441-0.554,2.165c-0.234,0.953-0.455,1.909-0.664,2.871c-0.159,0.731-0.312,1.464-0.457,2.201  c-0.19,0.977-0.362,1.958-0.527,2.943c-0.122,0.734-0.245,1.467-0.352,2.205c-0.047,0.327-0.11,0.647-0.156,0.975H70.423  C47.836,296.083,29.459,277.708,29.459,255.12z" data-original="#2D527C" class="active-path" data-old_color="#2D527C"/></g> </svg>
