<?xml version="1.0"?>
<svg xmlns="http://www.w3.org/2000/svg" xmlns:xlink="http://www.w3.org/1999/xlink" version="1.1" id="Layer_1" x="0px" y="0px" viewBox="0 0 512.002 512.002" style="enable-background:new 0 0 512.002 512.002;" xml:space="preserve" width="512px" height="512px" class=""><g><path style="fill:#FFFFFF" d="M461.809,183.947c4.537-13.926,6.828-28.429,6.828-43.299c0-77.36-62.936-140.297-140.297-140.297  c-46.791,0-90.137,23.266-116.109,61.527c-3.299-0.972-6.636-1.791-9.998-2.49c-0.262-0.054-0.525-0.105-0.786-0.157  c-1.747-0.35-3.502-0.666-5.263-0.942c-0.252-0.04-0.501-0.084-0.753-0.122c-1.969-0.296-3.946-0.552-5.932-0.756  c-0.228-0.024-0.458-0.038-0.686-0.06c-1.703-0.166-3.413-0.293-5.128-0.392c-0.49-0.029-0.978-0.055-1.469-0.078  c-1.948-0.089-3.901-0.149-5.862-0.149c-63.502,0-116.274,46.819-125.611,107.752c-0.965,6.303-1.466,12.758-1.466,19.327  c0,0.197,0,0.393,0.002,0.59C19.382,199.757,0,230.833,0,265.075c0,49.995,40.674,90.668,90.668,90.668h54.357  c8.755,0,15.852-7.097,15.852-15.852s-7.097-15.852-15.852-15.852H90.668c-32.513,0-58.964-26.451-58.964-58.964  c0-24.913,15.773-47.249,39.25-55.576c6.853-2.432,11.174-9.215,10.48-16.453c-0.301-3.143-0.455-6.249-0.455-9.234  c0-52.59,42.785-95.375,95.375-95.375c1.625,0,3.24,0.043,4.844,0.124c0.312,0.016,0.623,0.049,0.935,0.068  c1.303,0.078,2.603,0.166,3.892,0.296c0.25,0.025,0.499,0.065,0.75,0.092c1.349,0.147,2.695,0.311,4.026,0.514  c0.176,0.027,0.35,0.063,0.528,0.092c1.4,0.222,2.795,0.464,4.174,0.747c0.133,0.027,0.265,0.062,0.396,0.089  c1.417,0.296,2.826,0.618,4.22,0.976c0.109,0.029,0.219,0.062,0.328,0.092c1.412,0.369,2.815,0.764,4.202,1.197  c0.087,0.027,0.171,0.059,0.258,0.086c1.414,0.445,2.817,0.916,4.202,1.425c0.008,0.003,0.014,0.006,0.022,0.008  c36.492,13.397,62.595,48.492,62.595,89.571c0,8.755,7.097,15.852,15.852,15.852c8.755,0,15.852-7.097,15.852-15.852  c0-46.119-24.699-86.572-61.56-108.843c20.368-26.797,52.223-42.912,86.467-42.912c59.877,0,108.592,48.714,108.592,108.592  c0,15.903-3.384,31.259-10.057,45.64c-1.962,4.228-1.964,9.105-0.005,13.335c1.958,4.228,5.678,7.382,10.172,8.62  c25.467,7.021,43.254,30.39,43.254,56.832c0,32.513-26.451,58.964-58.964,58.964h-51.715c-8.755,0-15.852,7.097-15.852,15.852  c0,8.755,7.097,15.852,15.852,15.852h51.715c49.995,0,90.668-40.674,90.668-90.668C512,230.348,492.042,199.065,461.809,183.947z" data-original="#2D527C" class="active-path" data-old_color="#2D527C"/><circle style="fill:#CEE8FA" cx="255.997" cy="366.298" r="56.54" data-original="#CEE8FA" class=""/><path style="fill:#FFFFFF" d="M256,438.682c-39.917,0-72.392-32.475-72.392-72.392s32.475-72.392,72.392-72.392  s72.392,32.475,72.392,72.392S295.916,438.682,256,438.682z M256,325.604c-22.434,0-40.688,18.252-40.688,40.688  s18.252,40.688,40.688,40.688s40.688-18.252,40.688-40.688C296.688,343.856,278.434,325.604,256,325.604z" data-original="#2D527C" class="active-path" data-old_color="#2D527C"/><circle style="fill:#CEE8FA" cx="387.95" cy="455.768" r="40.043" data-original="#CEE8FA" class=""/><path style="fill:#FFFFFF" d="M387.954,511.65c-30.817,0-55.888-25.072-55.888-55.888s25.072-55.887,55.888-55.887  s55.887,25.07,55.887,55.887S418.77,511.65,387.954,511.65z M387.954,431.579c-13.335,0-24.184,10.849-24.184,24.183  c0,13.335,10.849,24.184,24.184,24.184s24.182-10.849,24.182-24.184C412.138,442.428,401.288,431.579,387.954,431.579z" data-original="#2D527C" class="active-path" data-old_color="#2D527C"/><circle style="fill:#CEE8FA" cx="124.043" cy="455.768" r="40.043" data-original="#CEE8FA" class=""/><path style="fill:#FFFFFF" d="M124.045,511.65c-30.817,0-55.887-25.072-55.887-55.888s25.07-55.887,55.887-55.887  s55.888,25.07,55.888,55.887S154.862,511.65,124.045,511.65z M124.045,431.579c-13.335,0-24.182,10.849-24.182,24.183  c0,13.335,10.849,24.184,24.182,24.184c13.335,0,24.184-10.849,24.184-24.184C148.229,442.428,137.38,431.579,124.045,431.579z" data-original="#2D527C" class="active-path" data-old_color="#2D527C"/></g> </svg>
