<?xml version="1.0"?>
<svg xmlns="http://www.w3.org/2000/svg" xmlns:xlink="http://www.w3.org/1999/xlink" version="1.1" id="Layer_1" x="0px" y="0px" viewBox="0 0 512 512" style="enable-background:new 0 0 512 512;" xml:space="preserve" width="512px" height="512px" class=""><g><path style="fill:#FFFFFF" d="M461.303,183.143c4.526-13.892,6.811-28.358,6.811-43.191C468.113,62.782,405.332,0,328.161,0  c-46.676,0-89.917,23.209-115.824,61.374c-3.291-0.969-6.616-1.787-9.97-2.483c-0.264-0.055-0.531-0.106-0.795-0.158  c-1.738-0.349-3.484-0.663-5.237-0.938c-0.253-0.04-0.506-0.085-0.759-0.123c-1.962-0.296-3.933-0.55-5.913-0.754  c-0.228-0.024-0.459-0.04-0.688-0.062c-1.698-0.164-3.403-0.293-5.112-0.391c-0.489-0.028-0.976-0.055-1.466-0.077  c-1.943-0.089-3.89-0.149-5.848-0.149c-69.899,0-126.767,56.868-126.767,126.767c0,0.196,0,0.392,0.002,0.588  c-29.822,15.32-49.156,46.317-49.156,80.475c0,49.872,40.574,90.445,90.445,90.445h54.224c8.734,0,15.813-7.08,15.813-15.813  c0-8.734-7.08-15.813-15.813-15.813H91.073c-32.433,0-58.819-26.386-58.819-58.819c0-24.852,15.734-47.131,39.154-55.441  c6.836-2.426,11.147-9.191,10.454-16.411c-0.3-3.141-0.454-6.24-0.454-9.211c0-52.46,42.68-95.14,95.14-95.14  c1.621,0,3.231,0.043,4.831,0.123c0.318,0.016,0.633,0.051,0.949,0.07c1.294,0.077,2.585,0.166,3.865,0.294  c0.261,0.027,0.52,0.068,0.78,0.096c1.335,0.145,2.665,0.307,3.982,0.508c0.195,0.03,0.387,0.07,0.582,0.101  c1.377,0.218,2.748,0.457,4.105,0.735c0.153,0.032,0.305,0.071,0.459,0.103c1.392,0.293,2.775,0.607,4.145,0.958  c0.134,0.035,0.267,0.076,0.4,0.111c1.385,0.362,2.759,0.75,4.119,1.172c0.111,0.035,0.22,0.074,0.33,0.109  c1.385,0.436,2.761,0.898,4.119,1.396c0.032,0.011,0.062,0.025,0.092,0.036c36.369,13.38,62.382,48.371,62.382,89.326  c0,8.734,7.08,15.813,15.813,15.813c8.734,0,15.813-7.08,15.813-15.813c0-46.006-24.639-86.359-61.409-108.575  C262.223,47.702,294,31.627,328.161,31.627c59.73,0,108.326,48.594,108.326,108.326c0,15.865-3.375,31.182-10.032,45.528  c-1.958,4.217-1.959,9.082-0.005,13.301s5.664,7.364,10.147,8.599c25.404,7.004,43.148,30.316,43.148,56.692  c0,32.433-26.386,58.819-58.819,58.819h-51.588c-8.734,0-15.813,7.08-15.813,15.813c0,8.734,7.08,15.813,15.813,15.813h51.588  c49.872,0,90.445-40.574,90.445-90.445C511.371,229.43,491.46,198.224,461.303,183.143z" data-original="#2D527C" class="active-path" data-old_color="#2D527C"/><path style="fill:#CEE8FA;" d="M303.437,365.954c0,26.201-21.239,47.44-47.44,47.44s-47.44-21.239-47.44-47.44  c0-47.44,47.44-76.958,47.44-76.958S303.437,318.514,303.437,365.954z" data-original="#CEE8FA" class=""/><path style="fill:#FFFFFF" d="M255.998,429.205c-34.878,0-63.253-28.375-63.253-63.253c0-55.585,52.657-88.989,54.899-90.384  c5.116-3.183,11.593-3.183,16.708,0c2.241,1.395,54.899,34.799,54.899,90.384C319.251,400.831,290.877,429.205,255.998,429.205z   M256.04,308.684c-11.714,9.788-31.668,30.404-31.668,57.268c0,17.439,14.188,31.626,31.627,31.626s31.627-14.188,31.627-31.626  C287.624,338.886,267.767,318.413,256.04,308.684z" data-original="#2D527C" class="active-path" data-old_color="#2D527C"/><path style="fill:#CEE8FA;" d="M428.968,461.398c0,19.213-15.576,34.789-34.789,34.789c-19.213,0-34.789-15.576-34.789-34.789  c0-34.789,34.789-56.436,34.789-56.436S428.968,426.608,428.968,461.398z" data-original="#CEE8FA" class=""/><path style="fill:#FFFFFF" d="M394.179,512c-27.902,0-50.602-22.7-50.602-50.602c0-43.078,40.523-68.789,42.248-69.863  c5.114-3.183,11.594-3.183,16.708,0c1.725,1.074,42.248,26.784,42.248,69.863C444.781,489.3,422.081,512,394.179,512z   M394.177,425.014c-8.038,7.334-18.974,20.274-18.974,36.383c0,10.464,8.512,18.976,18.976,18.976  c10.464,0,18.976-8.512,18.976-18.976C413.155,445.295,402.228,432.36,394.177,425.014z" data-original="#2D527C" class="active-path" data-old_color="#2D527C"/><path style="fill:#CEE8FA;" d="M152.607,461.398c0,19.213-15.576,34.789-34.789,34.789s-34.789-15.576-34.789-34.789  c0-34.789,34.789-56.436,34.789-56.436S152.607,426.608,152.607,461.398z" data-original="#CEE8FA" class=""/><path style="fill:#FFFFFF" d="M117.818,512c-27.902,0-50.602-22.7-50.602-50.602c0-43.078,40.523-68.789,42.248-69.863  c5.114-3.183,11.594-3.183,16.708,0c1.725,1.074,42.248,26.784,42.248,69.863C168.421,489.3,145.721,512,117.818,512z   M117.815,425.014c-8.038,7.334-18.974,20.274-18.974,36.383c0,10.464,8.512,18.976,18.976,18.976  c10.464,0,18.976-8.512,18.976-18.976C136.794,445.295,125.866,432.36,117.815,425.014z" data-original="#2D527C" class="active-path" data-old_color="#2D527C"/></g> </svg>
